<?xml version="1.0" standalone="no"?>
<!DOCTYPE svg PUBLIC "-//W3C//DTD SVG 20010904//EN"
 "http://www.w3.org/TR/2001/REC-SVG-20010904/DTD/svg10.dtd">
<svg version="1.0" xmlns="http://www.w3.org/2000/svg"
 width="4096.000000pt" height="3288.000000pt" viewBox="0 0 4096.000000 3288.000000"
 preserveAspectRatio="xMidYMid meet">

<g transform="translate(0.000000,3288.000000) scale(0.100000,-0.100000)"
fill="#000000" stroke="none">
<path d="M21247 28725 c-93 -18 -200 -58 -407 -155 -85 -40 -222 -104 -305
-142 -305 -143 -452 -213 -520 -248 -38 -21 -146 -72 -240 -115 -93 -42 -237
-111 -320 -152 -82 -41 -215 -106 -295 -143 -80 -37 -212 -100 -295 -140 -82
-40 -240 -114 -350 -165 -110 -51 -317 -151 -460 -222 -143 -72 -309 -153
-370 -181 -60 -28 -182 -85 -270 -127 -88 -42 -196 -93 -240 -111 -148 -64
-219 -98 -400 -190 -99 -51 -259 -128 -355 -172 -96 -44 -291 -137 -433 -206
-141 -69 -259 -126 -262 -126 -2 0 -174 -83 -382 -184 -433 -210 -585 -283
-768 -368 -71 -33 -267 -128 -435 -210 -168 -83 -388 -188 -490 -235 -102 -47
-403 -192 -670 -323 -267 -130 -541 -263 -610 -295 -167 -77 -735 -355 -975
-477 -115 -59 -303 -148 -312 -148 -5 0 -429 -205 -903 -437 -151 -74 -337
-161 -413 -194 -129 -56 -177 -80 -472 -234 -66 -35 -165 -83 -220 -108 -55
-25 -192 -90 -305 -144 -113 -55 -281 -135 -375 -179 -344 -160 -680 -334
-750 -386 -76 -58 -121 -116 -157 -206 l-23 -57 0 -705 0 -705 32 -65 c18 -36
57 -94 88 -130 31 -36 99 -119 152 -185 53 -66 158 -190 232 -275 75 -85 213
-245 306 -356 94 -111 217 -256 275 -321 58 -65 170 -195 250 -288 80 -93 237
-275 350 -405 225 -260 376 -437 490 -575 41 -49 108 -128 150 -175 67 -75
202 -234 534 -628 54 -64 131 -153 170 -197 40 -44 149 -172 243 -285 94 -113
213 -250 263 -305 50 -55 143 -163 206 -240 62 -77 186 -223 275 -325 88 -102
238 -277 332 -389 94 -113 214 -252 267 -310 104 -116 294 -335 412 -476 105
-126 149 -168 242 -229 105 -69 181 -107 286 -142 77 -25 99 -28 235 -28 128
-1 160 2 220 21 60 19 387 170 568 263 32 16 153 79 270 139 540 278 1152 581
1162 577 7 -2 15 -22 19 -44 4 -29 15 -46 40 -66 85 -65 70 -70 556 183 96 50
411 209 700 352 289 143 626 311 750 375 305 156 3046 1524 3054 1524 3 0 51
22 107 50 56 28 111 50 123 50 41 0 292 -182 433 -313 132 -123 297 -351 382
-526 37 -76 46 -108 49 -160 4 -61 1 -72 -35 -142 -67 -129 -211 -316 -350
-455 -168 -169 -539 -426 -930 -647 -285 -162 -1132 -569 -1763 -849 -469
-208 -1257 -586 -1470 -705 -85 -48 -234 -129 -330 -181 -407 -221 -1062 -644
-1353 -875 -406 -322 -751 -663 -1006 -996 -395 -515 -644 -1092 -735 -1701
-35 -229 -45 -1065 -16 -1310 10 -84 9 -85 -18 -117 -15 -18 -79 -92 -143
-165 -164 -188 -206 -247 -292 -415 -200 -392 -218 -492 -214 -1173 l3 -425
31 -115 c41 -150 76 -237 185 -458 181 -366 454 -740 727 -995 267 -251 459
-377 802 -531 220 -98 377 -143 629 -180 377 -55 836 -11 1230 117 348 114
736 308 979 490 176 132 533 442 545 473 9 24 18 22 426 -109 479 -154 771
-234 1205 -331 818 -182 1233 -242 2000 -290 639 -40 1146 -27 1710 45 681 86
973 154 1530 357 210 76 301 115 500 215 331 165 405 210 723 436 114 81 145
108 338 286 173 160 363 356 463 480 166 205 395 551 532 805 37 69 74 134 82
145 16 22 12 25 132 -70 397 -315 846 -636 1060 -760 550 -316 1081 -462 1554
-426 260 20 464 64 746 162 265 91 458 187 688 341 411 275 685 543 993 968
140 194 207 303 288 471 148 307 208 466 270 714 80 318 89 422 89 1010 -1
447 -3 502 -22 625 -27 172 -56 281 -127 472 -199 539 -475 894 -889 1143
-354 213 -671 286 -1179 272 -310 -8 -577 -52 -811 -132 -200 -68 -491 -207
-625 -298 -96 -65 -248 -183 -302 -234 -31 -29 -61 -53 -66 -53 -6 0 -4 20 4
48 31 99 44 491 24 693 -32 324 -114 564 -295 864 -216 361 -427 602 -780 895
-118 98 -510 364 -663 450 -239 134 -488 239 -743 314 -622 183 -1104 203
-1647 66 -86 -22 -165 -40 -174 -40 -19 0 -19 -10 11 195 43 282 45 320 43
745 -3 463 -8 536 -59 765 -58 265 -125 451 -221 610 -158 264 -348 456 -615
621 -511 316 -1022 455 -1817 495 -124 6 -281 9 -349 7 -84 -2 -125 1 -128 8
-2 6 31 27 74 47 308 142 497 234 618 302 77 42 246 128 375 189 129 62 291
142 360 180 69 37 238 122 375 189 138 67 502 247 810 401 308 153 660 327
782 386 150 74 225 116 234 131 8 16 10 53 5 129 -4 60 -3 117 2 131 8 19 79
59 333 188 178 90 380 194 449 231 69 38 327 168 573 290 254 126 474 241 507
266 68 52 114 116 138 194 15 49 16 125 16 710 l0 655 -25 55 c-41 87 -99 155
-246 289 -76 69 -187 173 -248 231 -60 59 -177 169 -260 246 -82 76 -236 222
-340 324 -176 171 -641 616 -929 890 -67 63 -236 225 -376 360 -140 135 -307
294 -370 355 -119 113 -245 234 -656 631 -131 126 -335 322 -453 435 -118 112
-366 350 -551 529 -184 179 -374 361 -420 404 -120 113 -532 509 -740 712
-181 176 -302 275 -401 325 -131 65 -309 91 -452 64z m255 -186 c68 -15 169
-65 238 -120 30 -23 235 -219 455 -434 220 -215 497 -483 615 -596 118 -112
302 -290 410 -394 107 -105 218 -211 245 -235 28 -24 187 -177 355 -340 168
-162 346 -333 395 -380 50 -46 187 -177 305 -290 118 -113 251 -240 295 -281
44 -40 190 -180 325 -309 135 -129 284 -270 330 -314 47 -43 159 -151 250
-240 91 -89 197 -190 235 -226 39 -36 147 -137 240 -225 94 -89 206 -194 250
-235 44 -41 168 -160 275 -265 108 -104 263 -250 345 -324 222 -199 427 -408
453 -462 16 -32 22 -64 22 -110 0 -78 -15 -104 -95 -164 -63 -47 -412 -227
-720 -373 -238 -112 -574 -279 -816 -405 -102 -53 -193 -97 -203 -97 -13 0
-16 12 -16 79 l0 80 -107 64 c-60 35 -139 81 -178 102 -123 67 -475 265 -640
360 -88 51 -254 144 -370 207 -549 302 -680 369 -756 389 -46 12 -47 12 -126
-33 -43 -26 -416 -213 -829 -417 -412 -204 -830 -412 -929 -462 -99 -50 -335
-169 -525 -264 -463 -234 -1556 -773 -1705 -842 -110 -51 -308 -151 -480 -243
-38 -21 -187 -93 -330 -160 -143 -68 -298 -144 -345 -170 -47 -26 -177 -93
-290 -149 -113 -57 -209 -106 -215 -111 -43 -33 -711 -373 -2392 -1215 -386
-193 -709 -357 -717 -364 -9 -8 -16 -28 -16 -46 0 -31 -2 -33 -58 -44 -224
-44 -864 -39 -1078 9 -34 8 -49 8 -54 0 -4 -6 -5 -100 -2 -209 2 -109 0 -201
-4 -204 -9 -5 -279 38 -394 63 -82 18 -251 67 -338 99 -110 41 -302 128 -323
147 -15 14 -18 38 -19 205 0 104 -3 195 -6 202 -2 7 -62 41 -132 74 -146 71
-349 191 -506 301 -176 124 -389 340 -531 537 -63 88 -91 139 -48 86 195 -237
317 -363 470 -486 85 -68 320 -225 337 -225 2 0 51 -28 108 -61 227 -136 346
-185 728 -305 103 -32 395 -97 559 -124 371 -61 744 -83 1055 -60 171 12 178
14 194 38 38 56 81 84 368 231 164 85 349 184 409 219 61 35 227 123 370 194
238 120 845 435 940 488 56 32 541 274 606 303 30 13 59 30 66 39 19 22 70
279 84 418 14 146 7 308 -22 495 -38 256 -122 491 -242 684 -265 424 -603 743
-1055 994 -343 191 -684 314 -1135 411 -307 66 -759 113 -956 98 -56 -4 -73
-2 -69 8 2 6 71 42 153 80 338 153 1207 581 1985 976 184 94 372 187 416 207
45 20 256 123 469 227 213 105 390 189 392 186 2 -2 -17 -35 -43 -72 -74 -108
-159 -296 -232 -514 -54 -163 -61 -245 -43 -535 11 -167 10 -203 -4 -300 -28
-186 -3 -364 87 -615 108 -303 272 -555 522 -805 132 -132 239 -220 442 -365
241 -172 406 -255 849 -429 324 -126 434 -145 502 -86 33 28 42 23 -127 64
-150 35 -430 131 -557 191 -84 39 -93 46 -98 74 -5 30 -25 339 -25 384 0 15
-6 22 -19 22 -33 0 -149 59 -391 200 -270 157 -514 367 -703 605 -73 92 -136
185 -124 185 2 0 26 -28 53 -62 119 -155 229 -270 346 -364 251 -204 358 -274
635 -415 95 -48 185 -96 200 -106 39 -27 90 -45 298 -103 528 -150 753 -195
1095 -220 80 -5 175 -12 212 -15 81 -6 34 -26 603 255 248 122 497 245 555
274 58 28 130 62 160 75 30 14 161 76 290 139 129 63 290 138 356 168 67 29
224 104 350 166 126 63 299 145 384 182 85 38 234 108 330 157 224 112 244
118 298 90 22 -11 43 -25 47 -31 3 -5 15 -10 26 -10 16 0 19 7 19 48 0 26 5
63 10 82 6 19 20 91 32 160 18 104 22 167 22 375 1 278 -3 312 -64 530 -63
222 -218 512 -388 724 -259 322 -519 535 -919 751 -338 182 -648 295 -1049
380 -277 58 -771 110 -1053 110 -136 0 -136 6 -1 65 47 21 218 104 380 185
162 81 338 166 390 190 225 99 664 326 683 352 11 14 22 49 25 77 7 76 -22
125 -124 211 -81 68 -375 346 -460 435 -23 24 -51 46 -62 49 -34 11 -96 -16
-707 -314 -387 -189 -556 -270 -561 -270 -2 0 -69 -32 -147 -71 -78 -39 -180
-88 -227 -109 -113 -50 -130 -58 -455 -211 -282 -132 -659 -307 -770 -357 -33
-15 -114 -53 -180 -86 -66 -32 -174 -82 -240 -111 -159 -70 -248 -112 -575
-270 -151 -73 -354 -167 -450 -210 -184 -82 -213 -95 -540 -250 -113 -54 -243
-115 -290 -137 -47 -22 -141 -67 -210 -100 -69 -33 -246 -115 -395 -183 -148
-67 -371 -171 -495 -230 -124 -59 -335 -158 -470 -220 -135 -62 -332 -154
-438 -204 -107 -50 -195 -91 -197 -91 -2 0 -106 -49 -232 -109 -210 -100 -315
-150 -448 -211 -27 -13 -162 -77 -300 -143 -137 -66 -367 -175 -510 -242 -143
-67 -374 -177 -513 -244 -139 -66 -254 -121 -257 -121 -3 0 -152 -71 -333
-159 -180 -87 -358 -173 -397 -191 -38 -18 -126 -58 -195 -90 -69 -32 -219
-104 -335 -160 -315 -153 -516 -250 -520 -250 -3 0 -55 -25 -117 -56 -62 -31
-185 -89 -273 -129 -88 -40 -217 -101 -288 -134 -70 -33 -173 -82 -230 -108
-150 -68 -143 -61 -157 -157 -12 -76 -11 -85 6 -112 30 -48 112 -142 244 -279
69 -72 192 -203 273 -292 82 -89 160 -169 173 -178 43 -28 107 -3 484 189 195
99 389 196 430 216 41 19 236 115 433 213 198 98 361 177 363 175 2 -2 -43
-96 -100 -209 -161 -320 -207 -476 -227 -770 -15 -213 -1 -368 57 -660 61
-310 111 -445 248 -684 79 -137 140 -215 300 -388 203 -218 394 -377 610 -507
418 -252 713 -372 1166 -474 201 -45 560 -86 895 -101 217 -10 670 26 750 59
26 11 36 12 42 3 5 -7 41 -79 80 -162 74 -158 169 -391 279 -690 36 -99 92
-243 124 -320 32 -77 68 -169 81 -204 22 -62 22 -64 4 -77 -10 -8 -24 -14 -31
-14 -26 0 -70 96 -228 505 -51 134 -101 247 -164 375 -65 132 -61 125 -67 119
-2 -3 3 -25 11 -49 118 -355 313 -951 318 -971 5 -24 -1 -30 -97 -86 -56 -33
-165 -93 -242 -133 -77 -40 -216 -114 -310 -164 -287 -153 -1084 -545 -1175
-578 -223 -80 -496 -28 -668 128 -102 92 -412 439 -597 669 -27 33 -81 96
-120 140 -39 44 -107 123 -150 175 -110 132 -390 463 -504 595 -177 207 -299
350 -368 431 -37 45 -145 171 -239 280 -94 110 -236 276 -315 370 -79 95 -225
266 -324 380 -100 115 -205 238 -234 274 -30 36 -84 99 -120 139 -36 41 -86
98 -111 127 -25 28 -70 80 -101 115 -30 35 -104 123 -164 194 -60 72 -138 164
-175 205 -36 41 -136 158 -221 259 -84 101 -192 227 -239 280 -47 53 -137 159
-200 235 -63 77 -177 210 -252 297 -76 87 -186 216 -245 286 -60 71 -167 199
-238 284 -168 199 -187 223 -220 289 -25 48 -27 62 -22 122 13 157 86 240 297
340 58 27 184 89 281 138 96 49 233 114 305 145 71 31 177 83 236 116 60 33
154 78 210 100 57 23 290 133 518 246 228 113 460 225 515 250 55 24 242 116
415 202 173 87 353 175 400 196 47 20 162 74 255 120 94 45 298 144 455 220
157 75 427 207 601 291 174 85 320 154 323 154 4 0 100 47 214 104 114 57 302
147 417 201 116 53 278 132 360 176 83 43 200 100 260 127 61 27 157 72 215
100 58 28 177 85 265 125 309 144 632 299 805 386 96 49 261 126 365 172 105
46 332 154 505 240 173 86 423 207 555 269 395 185 772 368 901 435 67 35 182
88 255 118 74 30 262 118 419 195 397 195 724 352 732 352 4 0 119 54 255 121
137 66 293 141 348 166 110 49 184 85 380 185 72 37 165 80 207 97 42 17 175
79 295 139 120 60 270 133 333 162 63 29 194 91 290 137 250 121 321 152 403
173 82 22 192 25 269 9z m-311 -947 c19 -15 61 -54 94 -86 145 -140 216 -207
300 -281 111 -98 155 -150 155 -183 0 -18 -77 -60 -400 -216 -179 -87 -605
-297 -946 -467 -342 -170 -625 -309 -629 -309 -4 0 -105 -49 -224 -108 -119
-60 -279 -137 -356 -172 -77 -35 -210 -99 -295 -141 -177 -88 -901 -439 -905
-439 -2 0 -115 -55 -252 -121 -136 -67 -349 -171 -473 -231 -124 -61 -252
-123 -285 -138 -117 -54 -722 -352 -865 -426 -181 -93 -1552 -776 -1755 -874
-414 -201 -749 -361 -920 -442 -104 -50 -370 -178 -590 -285 -220 -108 -456
-221 -525 -253 -69 -32 -228 -108 -355 -170 -126 -61 -275 -132 -330 -157 -55
-25 -190 -90 -300 -146 -242 -122 -495 -247 -590 -292 -38 -18 -314 -152 -612
-298 -330 -161 -565 -270 -599 -278 l-56 -13 -189 190 c-371 369 -489 510
-462 552 4 8 36 24 69 37 33 12 120 54 194 93 74 39 216 109 315 155 182 86
240 113 489 231 76 36 140 66 142 66 5 0 404 190 664 317 107 52 234 112 282
134 48 21 181 85 295 142 114 57 262 128 328 158 66 29 196 91 288 136 214
106 744 358 873 416 161 72 742 345 838 394 50 25 223 107 385 183 163 76 393
184 511 240 118 56 258 122 310 147 52 25 142 65 200 90 58 24 168 76 245 115
77 39 167 81 200 93 62 24 420 194 560 267 81 41 275 130 575 263 91 40 262
120 381 178 119 58 269 128 335 157 65 28 174 80 240 115 67 35 177 89 245
118 68 30 163 73 211 96 48 23 141 66 205 95 65 30 219 101 343 159 463 215
1048 485 1120 517 41 18 167 78 280 133 278 135 442 213 585 277 66 30 147 70
180 89 68 39 414 200 431 201 6 0 26 -13 45 -28z m-386 -2402 c304 -36 687
-159 930 -299 98 -57 333 -240 391 -305 176 -197 273 -379 303 -566 20 -121
14 -286 -14 -396 -66 -261 -269 -531 -531 -706 -282 -188 -559 -303 -902 -373
-408 -83 -962 -44 -1370 96 -607 209 -971 532 -1089 966 -23 85 -26 116 -26
238 2 271 67 458 237 678 96 126 341 320 513 406 189 94 349 150 588 206 176
40 258 54 403 65 127 10 441 4 567 -10z m2745 -2413 c0 -26 27 -49 68 -57 48
-8 62 1 62 42 0 15 3 28 8 28 4 0 32 -14 62 -31 30 -18 120 -66 200 -109 251
-133 410 -220 580 -315 91 -51 264 -147 385 -212 247 -135 443 -248 465 -269
12 -12 12 -16 -5 -29 -11 -9 -108 -58 -215 -110 -107 -52 -222 -109 -255 -126
-78 -40 -881 -448 -960 -487 -96 -49 -909 -450 -1155 -570 -124 -61 -504 -252
-845 -424 -341 -172 -939 -470 -1330 -662 -390 -191 -807 -399 -925 -461 -118
-62 -300 -154 -405 -203 -104 -50 -242 -118 -305 -151 -63 -34 -340 -173 -615
-308 -844 -417 -2364 -1184 -2583 -1304 -70 -38 -132 -69 -138 -69 -12 0 -60
98 -163 335 -38 88 -107 242 -154 341 -84 179 -157 370 -157 412 0 19 6 22 41
22 l42 0 -7 38 c-3 22 -13 62 -23 91 l-16 52 34 29 c19 16 106 69 194 118 162
91 362 204 535 303 52 30 138 73 190 96 83 36 162 79 387 213 29 17 61 30 70
28 20 -4 -19 -46 -180 -192 -54 -49 -123 -120 -154 -158 -70 -88 -188 -281
-174 -286 16 -5 181 90 331 192 310 211 505 393 717 671 72 94 197 318 219
391 8 28 20 58 27 67 10 14 1465 749 1827 923 58 28 393 196 745 374 2070
1045 2031 1025 2270 1139 88 42 235 116 326 164 155 81 456 228 524 255 17 7
120 60 230 117 110 58 206 105 213 105 6 0 12 -6 12 -13z m3988 -779 c-3 -388
-5 -436 -20 -457 -46 -65 -172 -138 -667 -387 -573 -287 -924 -468 -1056 -543
-49 -28 -93 -51 -97 -51 -7 0 -9 905 -2 932 3 10 31 33 62 51 102 61 475 254
557 288 44 18 104 48 134 67 30 19 93 53 140 74 168 77 509 244 716 349 116
59 216 108 223 108 11 1 13 -79 10 -431z m-12979 152 c388 -56 625 -137 918
-312 294 -175 464 -349 578 -590 49 -104 90 -248 100 -354 24 -245 -116 -597
-324 -818 -168 -177 -502 -373 -806 -474 -300 -100 -515 -135 -820 -135 -401
0 -740 71 -1092 230 -362 163 -658 413 -783 663 -92 184 -125 330 -117 525 4
110 10 145 37 230 75 234 191 402 392 570 105 88 154 122 294 198 287 155 566
240 934 282 172 20 498 13 689 -15z m10963 -1182 c-1 -403 -5 -742 -7 -753 -5
-24 -243 -150 -1085 -573 -316 -160 -613 -310 -660 -336 -47 -25 -92 -46 -101
-46 -14 0 -17 34 -22 292 -4 161 -4 295 1 299 4 4 19 11 35 14 l27 7 0 -129
c0 -201 11 -373 24 -373 7 0 53 27 104 60 51 33 181 104 290 158 303 150 848
433 937 487 84 50 235 154 235 160 0 6 -55 -19 -248 -114 -101 -50 -186 -91
-189 -91 -12 0 -950 -463 -1004 -496 -31 -19 -59 -34 -63 -34 -4 0 -5 91 -4
203 l3 202 165 88 c91 48 312 162 492 252 436 219 609 312 631 338 17 19 18
38 11 271 -3 138 -8 253 -10 254 -1 2 -175 -81 -386 -186 -211 -104 -435 -213
-498 -243 -63 -30 -182 -89 -264 -131 -83 -43 -156 -78 -164 -78 -12 0 -14 17
-10 103 6 102 15 137 51 190 22 32 16 34 -28 7 -55 -34 -69 -77 -73 -223 -4
-116 -6 -129 -25 -142 -45 -32 -47 -26 -47 158 0 94 4 177 8 183 4 6 48 33 97
60 124 68 1758 892 1770 893 7 1 9 -248 7 -731z m-17772 350 c109 -143 197
-250 330 -403 53 -60 138 -162 190 -225 52 -63 130 -155 175 -205 113 -127
379 -433 514 -594 63 -75 151 -177 195 -226 86 -97 326 -376 571 -666 164
-193 218 -258 594 -707 57 -68 139 -161 182 -208 43 -46 126 -144 186 -216 59
-73 162 -196 228 -273 66 -77 161 -189 210 -249 50 -61 137 -164 195 -229 94
-108 168 -194 533 -621 746 -874 817 -952 942 -1021 174 -98 308 -130 510
-123 194 7 267 35 735 285 135 72 488 253 784 403 297 150 565 288 595 306 96
58 88 99 87 -447 l-1 -481 -50 -17 c-28 -10 -217 -102 -420 -206 -1026 -521
-1515 -761 -1595 -782 -91 -25 -282 -24 -370 2 -149 42 -244 99 -355 210 -67
66 -258 285 -355 405 -25 30 -100 118 -167 195 -229 264 -671 785 -788 930
-27 34 -91 108 -142 166 -102 116 -302 348 -438 509 -49 58 -122 142 -162 186
-39 43 -127 145 -195 225 -68 80 -204 239 -303 354 -99 114 -214 249 -255 300
-41 50 -150 179 -241 286 -92 107 -233 273 -315 369 -81 96 -178 209 -215 250
-37 41 -103 118 -146 171 -43 53 -141 168 -218 256 -77 88 -210 242 -295 343
-85 101 -188 222 -229 269 -40 47 -135 158 -210 245 -75 88 -183 214 -239 280
-57 67 -117 144 -133 171 l-29 50 1 428 c1 235 5 427 9 427 4 0 49 -55 100
-122z m15728 -1390 c2 -409 -1 -748 -5 -754 -4 -7 -280 -149 -613 -317 -333
-168 -677 -343 -766 -388 -111 -57 -166 -80 -179 -75 -18 6 -18 28 -12 554 4
301 7 634 7 739 l0 193 38 23 c50 32 340 182 592 307 113 55 366 182 562 281
197 98 361 179 366 179 4 0 9 -334 10 -742z m182 422 c0 -16 -4 -30 -10 -30
-5 0 -10 14 -10 30 0 17 5 30 10 30 6 0 10 -13 10 -30z m0 -187 c0 -82 5 -166
10 -188 5 -25 5 -44 0 -49 -5 -5 -12 -8 -14 -5 -8 8 -11 389 -3 389 4 0 7 -66
7 -147z m-1929 -785 c2 -233 2 -575 -1 -761 -4 -285 -7 -339 -20 -348 -29 -20
-265 -4 -390 26 -122 29 -140 37 -140 64 0 46 186 370 252 438 l41 42 -32 198
c-17 109 -36 236 -41 282 -5 46 -11 86 -14 88 -6 6 -197 -345 -257 -473 -107
-226 -134 -353 -125 -571 3 -78 11 -154 16 -169 6 -15 9 -29 6 -31 -2 -2 -39
19 -82 47 -122 79 -286 154 -497 224 -152 51 -349 107 -421 119 -6 1 -8 -99
-7 -250 l3 -252 -26 -26 c-51 -50 -24 -79 101 -106 168 -37 513 -155 513 -176
0 -7 -772 -394 -777 -390 -1 2 -5 338 -9 748 l-7 744 194 100 c254 129 463
234 919 459 206 102 467 233 580 290 113 58 208 106 211 106 4 0 8 -190 10
-422z m-2076 -1266 c6 -534 3 -840 -9 -848 0 -1 -347 -174 -771 -386 -423
-212 -840 -422 -926 -467 -86 -44 -163 -81 -172 -81 -15 0 -17 24 -17 253 0
138 -3 471 -7 738 l-6 486 179 94 c98 52 235 121 304 154 69 33 179 88 245
123 66 35 286 146 490 246 203 101 438 220 520 264 83 45 153 81 156 82 4 0
10 -296 14 -658z m3265 17 c74 -11 216 -39 315 -64 99 -24 223 -54 275 -66
118 -27 252 -77 440 -162 257 -117 357 -175 505 -294 320 -257 525 -550 636
-910 25 -84 100 -425 99 -456 -1 -7 -18 31 -39 83 -91 227 -189 388 -334 551
-205 230 -497 437 -827 589 l-145 67 -27 72 c-54 148 -119 214 -319 328 -169
97 -275 135 -619 222 -127 33 -233 61 -235 63 -9 9 151 -5 275 -23z m-5337
-826 c3 -241 2 -581 -1 -757 l-7 -318 -525 -268 c-289 -147 -644 -328 -790
-403 -146 -75 -310 -156 -365 -181 -90 -41 -97 -43 -68 -18 17 15 132 78 255
139 123 61 310 161 416 222 106 61 268 149 360 196 160 81 359 198 391 230 30
30 -14 16 -140 -44 -254 -120 -1142 -566 -1218 -611 -28 -16 -52 -26 -53 -22
-1 4 -3 102 -4 217 -2 116 -6 380 -10 587 -4 207 -4 388 0 401 3 14 17 39 31
55 l25 30 -52 -20 c-29 -11 -56 -23 -60 -26 -3 -4 -9 -322 -13 -707 l-6 -700
-29 -18 c-16 -10 -35 -15 -41 -11 -9 5 -11 181 -6 738 3 402 8 738 12 746 13
32 186 124 1001 531 463 231 850 426 860 434 10 8 22 15 25 15 3 0 8 -197 12
-437z m5254 294 c292 -30 404 -49 638 -109 536 -136 884 -324 1195 -644 220
-227 343 -453 430 -789 58 -223 62 -377 19 -630 -27 -158 -150 -638 -177 -693
-4 -7 -54 -32 -112 -55 -286 -117 -635 -336 -995 -626 -155 -125 -499 -466
-648 -641 -352 -416 -625 -772 -821 -1070 -259 -393 -709 -1119 -870 -1402
l-21 -37 -380 6 c-551 8 -1033 -17 -1710 -88 -560 -59 -986 -137 -1895 -349
-465 -108 -1122 -317 -1645 -523 -570 -224 -975 -425 -1360 -675 -88 -57 -435
-309 -521 -377 l-31 -25 -32 77 c-61 147 -111 304 -120 381 -23 185 31 459
164 827 155 427 265 628 561 1020 197 262 367 441 704 739 556 494 1328 993
2172 1405 375 183 708 342 878 419 85 38 234 107 330 152 96 45 227 104 290
130 177 75 314 138 570 263 129 63 318 154 420 202 102 48 214 104 250 125 36
21 148 84 250 140 193 106 478 286 714 449 463 319 728 748 785 1273 16 142
14 372 -4 465 -43 226 -137 439 -267 610 -22 29 -37 56 -35 60 3 5 254 8 559
8 437 -1 587 -5 715 -18z m-1806 -2048 c4 -68 9 -143 13 -166 4 -23 4 -48 -1
-56 -14 -26 -290 -235 -453 -344 -103 -68 -239 -147 -402 -231 l-138 -71 0
161 c0 134 -3 165 -17 190 -18 29 -18 30 7 50 14 11 61 38 104 60 71 36 194
109 581 349 61 37 148 95 195 128 47 34 89 60 95 58 6 -2 13 -59 16 -128z
m3683 -1091 c-3 -24 -21 -122 -40 -218 -37 -193 -38 -194 -129 -242 -162 -85
-491 -314 -686 -478 -36 -30 -87 -73 -114 -95 -228 -185 -514 -482 -728 -757
-68 -88 -68 -88 -93 -71 -14 9 -32 29 -40 44 -8 16 -19 29 -24 29 -12 0 -93
-48 -198 -118 -138 -92 -153 -91 -68 3 29 33 146 178 260 323 383 488 613 743
897 996 315 281 598 475 868 593 100 43 103 43 95 -9z m1517 -148 c395 -39
936 -198 1310 -385 306 -153 493 -270 809 -504 133 -98 512 -471 601 -591 153
-207 344 -562 413 -769 64 -193 69 -347 20 -565 -24 -109 -24 -109 -102 -205
-131 -163 -208 -270 -298 -421 -193 -321 -292 -452 -427 -558 -311 -246 -729
-426 -1167 -504 -178 -31 -510 -31 -685 1 -387 70 -725 196 -1012 378 -290
185 -644 488 -806 693 -127 159 -294 425 -367 583 -133 290 -166 502 -120 774
51 296 212 828 465 1533 42 118 81 231 87 250 23 79 30 86 140 120 498 157
805 203 1139 170z m-1600 -408 c-5 -15 -20 -63 -31 -107 -12 -44 -41 -143 -65
-220 -133 -431 -206 -742 -234 -1000 -6 -49 -11 -295 -12 -545 -1 -571 12
-676 117 -967 172 -479 477 -902 881 -1225 199 -159 238 -187 386 -277 204
-125 427 -222 688 -300 419 -126 907 -130 1330 -12 151 43 385 130 523 195 66
31 121 54 124 51 3 -2 -9 -37 -27 -76 -18 -39 -49 -117 -71 -174 -36 -95 -86
-216 -242 -580 -88 -207 -310 -655 -324 -655 -13 0 -266 200 -590 466 -208
170 -441 351 -634 492 -85 62 -216 158 -290 212 -74 55 -196 138 -270 184 -74
46 -180 116 -235 156 -55 39 -129 88 -165 107 -36 20 -141 81 -235 136 -323
189 -983 505 -1285 615 -294 107 -620 208 -895 276 -361 90 -974 195 -1140
196 -27 0 -56 4 -62 8 -14 9 -8 20 104 197 28 44 107 172 177 285 113 182 367
547 551 790 35 47 124 166 198 265 462 622 1020 1146 1585 1486 132 80 147 87
150 68 2 -12 -1 -33 -7 -47z m7099 -2316 c355 -62 596 -161 845 -349 365 -276
571 -579 753 -1109 88 -253 104 -434 58 -659 -102 -502 -366 -1065 -693 -1476
-161 -203 -436 -468 -673 -648 -173 -132 -207 -155 -357 -246 -294 -179 -586
-294 -925 -363 -187 -38 -296 -49 -493 -50 -430 -1 -803 113 -1315 404 -263
149 -293 169 -732 498 l-286 215 27 51 c15 28 71 153 125 279 53 125 113 262
133 305 19 42 77 181 128 307 51 127 134 325 185 440 95 217 252 593 264 633
4 12 43 61 87 109 205 220 318 380 424 601 77 158 139 257 209 332 197 211
535 439 815 550 238 94 466 149 781 186 152 17 510 12 640 -10z m-10610 -1296
c0 -13 -179 -323 -315 -545 -51 -82 -157 -267 -237 -410 -80 -143 -168 -298
-195 -345 -28 -47 -97 -166 -153 -265 -178 -311 -357 -598 -602 -965 -541
-812 -884 -1260 -1253 -1640 -73 -75 -140 -148 -150 -164 -22 -33 -10 -36
-255 51 -279 99 -448 168 -835 341 -286 127 -775 378 -1005 514 -259 154 -537
334 -690 446 -147 108 -507 401 -650 529 -171 152 -570 570 -570 595 0 3 42
31 93 63 50 32 153 99 227 150 178 120 220 144 720 402 338 175 867 380 1455
564 779 244 1297 366 2165 509 453 74 787 113 1240 146 352 25 1010 41 1010
24z m595 -35 c236 -19 357 -35 617 -80 245 -42 658 -132 858 -186 277 -76 773
-246 1050 -360 180 -74 810 -385 986 -487 231 -133 613 -381 874 -566 298
-211 971 -725 1179 -900 46 -39 95 -81 110 -92 l25 -21 -54 -89 c-112 -185
-150 -236 -390 -529 -247 -300 -615 -639 -890 -821 -403 -265 -655 -403 -920
-502 -139 -53 -439 -153 -570 -190 -521 -150 -1500 -282 -2095 -282 -227 0
-599 16 -820 35 -1077 93 -1952 258 -2838 536 -87 27 -160 49 -162 49 -16 0 1
31 43 79 26 31 81 99 123 151 262 330 288 366 444 595 60 88 159 232 220 320
200 287 310 457 425 655 62 107 120 206 130 220 45 67 464 776 560 950 29 52
112 199 185 325 72 127 161 284 197 350 169 307 222 401 309 546 52 86 108
180 124 209 42 74 64 100 83 100 10 0 98 -7 197 -15z m-7371 -1273 c-151 -148
-254 -272 -254 -305 0 -22 50 -30 136 -22 61 5 74 4 74 -8 0 -14 -93 -94 -170
-147 -94 -65 -307 -246 -404 -344 -218 -221 -344 -382 -425 -544 -23 -45 -46
-80 -51 -77 -22 14 4 332 36 445 21 74 92 203 166 301 108 143 388 421 533
529 249 185 468 328 505 329 8 0 -57 -70 -146 -157z m-394 -823 c52 -92 216
-323 318 -446 169 -205 414 -447 752 -744 315 -277 786 -584 1420 -927 357
-193 639 -320 1108 -502 61 -24 112 -47 112 -52 0 -4 -65 -50 -143 -102 -450
-296 -841 -460 -1287 -539 -229 -41 -336 -50 -539 -44 -242 7 -489 52 -725
134 -277 96 -622 310 -931 576 -175 151 -407 423 -573 672 -127 190 -288 568
-321 755 l-12 65 54 166 c96 292 218 508 408 719 128 142 311 321 324 317 6
-2 21 -23 35 -48z m12317 -2203 l-12 -199 -120 -81 c-351 -236 -724 -431
-1160 -606 -434 -174 -843 -284 -1343 -360 -108 -17 -213 -33 -234 -36 -36 -5
-36 -5 -43 35 -14 87 -163 255 -280 318 -38 21 -68 42 -67 48 1 5 39 11 84 12
473 17 1262 155 1666 290 254 85 582 220 757 312 226 119 562 327 700 435 33
26 61 43 62 39 1 -4 -3 -98 -10 -207z"/>
<path d="M21215 28189 c-85 -6 -134 -24 -290 -105 -66 -35 -172 -85 -235 -112
-63 -27 -196 -89 -295 -137 -286 -138 -500 -240 -730 -345 -93 -43 -249 -118
-346 -168 -96 -49 -202 -99 -235 -111 -32 -12 -128 -58 -213 -102 -84 -44
-224 -110 -310 -148 -136 -60 -513 -238 -991 -468 -80 -39 -190 -91 -245 -116
-55 -25 -202 -95 -327 -156 -125 -61 -272 -131 -325 -155 -54 -24 -207 -98
-340 -165 -133 -66 -264 -129 -290 -140 -56 -22 -418 -194 -723 -344 -113 -55
-275 -133 -360 -172 -401 -187 -736 -347 -850 -406 -69 -36 -233 -116 -365
-179 -132 -62 -307 -146 -390 -185 -82 -40 -176 -85 -208 -99 -91 -41 -547
-267 -597 -296 -25 -14 -110 -56 -190 -92 -80 -37 -281 -133 -445 -213 -342
-168 -449 -219 -590 -282 -55 -25 -201 -96 -325 -159 -333 -168 -914 -451
-1000 -487 -41 -17 -172 -79 -290 -139 -187 -94 -428 -211 -795 -388 -55 -27
-234 -111 -398 -189 -164 -77 -317 -153 -340 -168 -58 -39 -91 -106 -95 -199
-5 -92 8 -117 139 -264 57 -63 182 -207 278 -320 97 -113 211 -243 255 -290
43 -47 122 -139 175 -205 53 -65 142 -169 199 -230 56 -60 153 -170 215 -244
219 -262 362 -428 498 -576 76 -82 161 -179 189 -215 29 -36 120 -141 204
-235 221 -246 471 -527 627 -705 75 -85 218 -245 319 -355 100 -110 207 -231
238 -270 73 -90 110 -132 262 -296 69 -74 169 -187 223 -252 172 -206 621
-690 539 -582 -16 22 -39 48 -51 59 -11 10 -18 22 -16 26 3 4 -2 11 -11 14 -8
3 -13 9 -10 14 2 4 -32 50 -76 102 -44 52 -106 127 -137 165 -119 148 -252
306 -395 470 -82 93 -194 226 -249 295 -55 69 -130 159 -167 200 -36 41 -132
154 -213 250 -81 96 -198 234 -260 306 -62 73 -159 187 -217 255 -58 68 -159
185 -225 261 -66 77 -160 187 -209 246 -121 146 -295 349 -386 452 -42 47
-155 179 -251 294 -545 653 -820 974 -1089 1272 -158 174 -210 242 -234 302
-22 59 -21 69 17 103 59 55 324 193 557 291 52 22 215 98 362 169 147 71 303
145 345 163 43 18 146 68 230 110 83 42 154 76 157 76 3 0 80 37 173 81 220
107 414 199 418 199 5 0 274 128 340 161 205 104 833 406 1010 486 116 52 269
125 340 162 72 37 209 105 305 151 96 45 261 123 365 173 251 118 663 317 955
460 129 63 303 145 385 182 83 37 233 109 335 161 102 52 266 132 365 178 99
46 275 130 390 186 116 56 282 136 370 177 88 42 277 133 420 202 143 70 298
145 345 166 47 22 209 101 360 176 151 76 304 149 340 164 36 15 180 84 320
155 140 70 341 168 445 218 105 49 318 153 475 230 157 76 353 172 435 212 83
40 231 112 330 160 99 49 203 98 232 109 28 11 188 87 355 170 166 82 434 211
593 286 160 75 351 170 425 212 183 103 170 97 310 154 165 67 185 72 248 66
70 -7 178 -75 300 -187 151 -140 325 -302 397 -371 94 -89 258 -237 370 -333
44 -38 125 -110 180 -161 92 -85 264 -240 453 -409 184 -164 255 -229 386
-351 76 -71 178 -163 225 -204 47 -40 149 -133 226 -205 77 -73 253 -235 390
-361 138 -126 313 -288 390 -360 155 -143 490 -450 745 -682 91 -82 191 -174
223 -202 77 -72 73 -58 -8 19 -35 35 -63 66 -62 71 2 7 -547 557 -658 658 -33
30 -177 168 -320 306 -143 138 -296 284 -340 325 -44 41 -179 169 -300 285
-121 116 -251 240 -290 275 -38 36 -156 148 -260 250 -105 102 -274 259 -375
350 -102 91 -241 219 -311 285 -104 100 -556 526 -593 560 -6 6 -49 46 -96 90
-47 44 -137 126 -200 182 -63 56 -149 134 -190 172 -41 39 -95 81 -120 95 -54
29 -148 43 -245 35z"/>
<path d="M23526 24948 c4 -7 35 -56 70 -108 77 -118 153 -262 189 -358 30 -79
39 -89 168 -170 42 -26 138 -90 214 -142 478 -327 1189 -790 1213 -790 4 0 31
-21 59 -46 l52 -46 57 25 c114 51 179 62 416 71 71 3 131 7 133 9 2 3 -18 17
-44 32 -113 65 -394 232 -468 278 -373 234 -672 419 -840 522 -110 67 -256
158 -325 201 -69 44 -258 158 -420 253 -162 96 -333 198 -379 227 -84 54 -108
65 -95 42z"/>
<path d="M25855 23310 c-97 -8 -177 -26 -266 -59 -176 -66 -331 -241 -360
-408 -33 -189 101 -367 366 -486 152 -68 293 -90 471 -76 152 12 269 50 420
134 170 95 272 279 243 439 -40 222 -275 404 -584 452 -97 15 -149 15 -290 4z"/>
<path d="M19830 21380 c0 -71 3 -130 7 -130 3 0 34 15 67 34 34 19 124 62 200
96 196 86 196 86 84 94 -51 4 -133 13 -183 21 -49 8 -109 15 -132 15 l-43 0 0
-130z"/>
<path d="M13820 17169 c-168 -13 -274 -48 -406 -135 -229 -151 -298 -348 -193
-556 53 -106 181 -210 335 -272 152 -62 436 -79 612 -36 235 56 387 163 470
329 34 70 37 81 37 166 0 82 -3 97 -33 158 -58 118 -180 219 -339 284 -143 57
-294 77 -483 62z"/>
<path d="M20295 24904 c-16 -2 -73 -9 -125 -15 -186 -21 -367 -82 -571 -194
-150 -82 -225 -135 -301 -210 -151 -150 -248 -377 -248 -580 0 -173 107 -394
264 -543 143 -136 294 -227 481 -292 472 -162 838 -170 1273 -25 315 105 540
261 676 470 98 149 128 243 128 394 1 217 -82 402 -259 579 -218 217 -529 359
-892 407 -94 13 -346 18 -426 9z m353 -65 c545 -59 992 -335 1113 -687 29 -84
43 -235 30 -321 -18 -114 -130 -345 -155 -320 -3 3 -15 39 -26 81 -31 120
-101 251 -141 263 -26 9 -69 -19 -103 -66 -31 -44 -43 -45 -66 -6 -8 14 -52
56 -97 93 -46 37 -83 72 -83 78 0 6 16 31 35 55 20 25 38 55 41 68 6 23 -10
53 -27 53 -5 0 -47 18 -95 40 -47 23 -111 47 -141 55 -69 18 -211 38 -228 31
-15 -6 -29 -85 -26 -147 l3 -46 -113 -6 c-129 -8 -141 -3 -145 60 -1 21 -5 45
-8 53 -3 8 -10 27 -15 43 -12 32 -25 33 -109 7 -145 -46 -350 -153 -373 -197
-19 -35 1 -66 65 -103 31 -17 56 -35 56 -39 0 -4 -15 -25 -33 -47 -18 -21 -50
-64 -72 -94 -21 -30 -42 -59 -46 -63 -9 -12 -45 8 -92 50 -30 26 -46 33 -70
31 -28 -3 -36 -10 -64 -68 -34 -69 -63 -190 -63 -264 0 -26 12 -74 30 -117 49
-121 43 -124 -79 -41 -182 122 -280 226 -352 377 -88 181 -90 353 -9 550 106
252 344 445 687 555 272 87 525 116 771 89z m217 -689 c79 -14 222 -58 230
-70 4 -6 -12 -38 -34 -73 -23 -34 -41 -67 -41 -73 0 -6 24 -30 53 -52 83 -64
164 -147 187 -191 29 -57 56 -55 124 9 29 28 60 50 69 50 21 0 26 -10 81 -173
55 -160 56 -156 -40 -230 -194 -153 -513 -275 -844 -323 -212 -31 -473 1 -751
92 -121 39 -138 48 -148 72 -52 133 -63 172 -64 232 -2 77 22 227 38 240 7 6
20 3 37 -8 14 -9 43 -29 64 -43 22 -15 58 -30 81 -33 40 -7 41 -7 48 26 7 32
90 159 147 226 49 57 35 98 -49 140 l-56 29 29 20 c75 53 295 150 314 138 5
-3 10 -23 11 -43 0 -20 6 -62 12 -92 l12 -55 130 4 c127 4 209 7 231 10 7 1
14 36 19 89 8 98 10 105 33 98 10 -3 44 -10 77 -16z"/>
<path d="M20270 24655 c-257 -35 -476 -119 -632 -243 -80 -64 -118 -115 -172
-232 -48 -105 -60 -169 -54 -292 7 -155 21 -163 36 -21 12 117 36 212 68 275
24 47 129 154 194 198 169 115 391 179 692 201 465 33 937 -76 1154 -267 34
-30 65 -54 69 -54 14 0 -58 91 -118 147 -157 146 -408 253 -690 292 -105 15
-429 12 -547 -4z"/>
<path d="M20563 24143 c15 -2 39 -2 55 0 15 2 2 4 -28 4 -30 0 -43 -2 -27 -4z"/>
<path d="M23618 22623 c12 -2 32 -2 45 0 12 2 2 4 -23 4 -25 0 -35 -2 -22 -4z"/>
<path d="M23783 22613 c15 -2 37 -2 50 0 12 2 0 4 -28 4 -27 0 -38 -2 -22 -4z"/>
<path d="M23390 22423 c-8 -3 -118 -56 -245 -119 -126 -62 -293 -140 -370
-174 -177 -78 -363 -176 -434 -229 -19 -14 -97 -47 -175 -72 -217 -72 -504
-185 -731 -289 -118 -54 -426 -190 -430 -190 -2 0 -136 -62 -297 -139 -161
-76 -315 -146 -343 -155 -27 -9 -66 -25 -85 -36 l-35 -18 30 -9 c17 -4 161 -8
320 -8 l290 0 51 32 c27 18 88 50 136 72 48 22 169 84 270 137 101 53 228 119
283 147 55 28 165 86 245 130 129 72 379 205 545 291 33 17 96 48 140 69 44
20 114 58 155 82 41 25 156 86 255 136 99 50 205 106 236 125 53 32 79 41 79
29 0 -5 -55 -85 -118 -170 -36 -48 -104 -176 -98 -182 27 -27 401 410 422 493
11 42 -41 67 -96 47z"/>
<path d="M23825 21791 c-99 -13 -236 -96 -272 -164 -25 -48 -21 -134 7 -186
21 -37 98 -101 122 -101 4 0 -8 21 -28 47 -60 79 -68 125 -34 193 41 80 140
121 294 121 189 0 228 -13 334 -114 82 -78 103 -77 62 3 -61 119 -189 190
-370 203 -36 3 -87 2 -115 -2z"/>
<path d="M22830 21751 c-78 -30 -166 -71 -505 -236 -110 -53 -229 -111 -265
-127 -36 -17 -171 -82 -300 -145 -129 -63 -261 -126 -293 -140 -31 -14 -56
-28 -53 -30 2 -2 66 12 142 31 284 72 652 220 921 371 110 62 385 236 458 289
20 15 19 15 -5 15 -14 0 -59 -13 -100 -28z"/>
<path d="M21135 20726 c-33 -18 -78 -39 -100 -48 -103 -41 -148 -62 -402 -189
-149 -75 -325 -161 -390 -190 -230 -103 -1100 -546 -1333 -679 -135 -78 -337
-188 -482 -264 -43 -23 -78 -47 -78 -55 0 -12 224 -298 319 -407 20 -22 48
-56 63 -75 l27 -34 -9 33 c-13 50 -208 394 -231 408 -23 14 -5 37 49 61 31 14
177 83 324 154 147 71 270 129 273 129 13 0 967 471 1110 548 88 47 201 106
250 130 164 81 460 243 601 329 39 24 79 43 89 43 23 0 180 -96 345 -210 154
-106 200 -134 200 -123 0 5 -57 68 -127 139 -140 143 -381 335 -417 333 -11
-1 -48 -16 -81 -33z"/>
<path d="M17830 18271 c-52 -21 -171 -68 -265 -104 -93 -36 -219 -86 -280
-111 -60 -26 -116 -45 -125 -44 -9 2 -29 -7 -44 -20 -16 -12 -35 -22 -44 -22
-11 0 -13 -7 -8 -32 3 -17 9 -34 12 -37 3 -3 40 13 82 35 42 23 136 65 207 94
121 48 538 250 560 271 12 12 14 13 -95 -30z"/>
<path d="M16510 18236 c-81 -18 -123 -39 -176 -88 -83 -76 -111 -187 -65 -261
21 -34 131 -136 131 -122 0 4 -19 40 -43 79 -24 39 -47 83 -50 98 -10 40 19
103 66 143 65 56 121 70 277 70 l135 0 75 -37 c41 -20 100 -59 132 -87 50 -46
78 -62 78 -45 0 15 -75 116 -106 144 -110 96 -300 141 -454 106z"/>
<path d="M16403 17739 c-14 -13 -380 -110 -471 -125 -96 -15 -341 -18 -412 -4
-25 4 -46 7 -48 6 -1 -2 23 -48 54 -102 31 -54 78 -143 106 -197 30 -60 54
-97 61 -94 247 102 768 362 878 439 l24 16 -30 12 c-16 6 -38 19 -48 27 -19
18 -102 34 -114 22z"/>
<path d="M27312 22117 c-75 -145 -191 -294 -370 -474 -139 -141 -191 -185
-310 -267 -79 -55 -167 -112 -196 -127 -81 -44 -168 -63 -256 -55 -103 8 -138
19 -264 82 -60 30 -110 54 -112 54 -3 0 8 -574 11 -578 2 -2 90 42 197 99 106
56 281 148 388 204 107 56 276 146 375 200 99 54 245 134 325 177 159 87 206
124 220 178 22 81 54 570 39 585 -3 2 -23 -33 -47 -78z"/>
<path d="M13910 21854 c-113 -16 -292 -61 -415 -104 -243 -85 -488 -270 -615
-464 -117 -178 -146 -408 -77 -599 30 -82 99 -199 170 -287 156 -192 447 -360
754 -434 152 -36 278 -50 468 -49 425 1 792 128 1094 378 40 33 105 103 145
156 122 160 156 250 156 412 0 240 -91 443 -277 617 -124 116 -225 177 -421
254 -240 94 -468 137 -727 135 -88 -1 -203 -7 -255 -15z m412 -44 c220 -16
459 -81 664 -180 284 -138 484 -377 523 -628 22 -139 11 -238 -39 -348 -37
-83 -97 -174 -114 -174 -9 0 -20 26 -31 78 -30 134 -99 252 -147 252 -11 0
-41 -18 -67 -40 -26 -22 -55 -40 -64 -40 -9 0 -28 18 -42 39 -13 22 -56 65
-95 96 l-70 56 35 46 c19 25 35 54 35 64 0 28 -35 54 -135 103 -114 56 -194
76 -303 79 l-87 2 0 -90 0 -90 -128 -3 -128 -3 3 83 3 83 -48 3 c-39 3 -74 -8
-200 -58 -162 -66 -209 -90 -244 -129 -38 -40 -30 -62 38 -110 33 -23 63 -49
66 -57 3 -8 -10 -33 -29 -57 -19 -23 -51 -68 -72 -100 -42 -65 -34 -66 -119 6
-65 55 -91 50 -135 -27 -51 -87 -72 -156 -72 -233 0 -59 17 -167 35 -224 4
-11 2 -19 -3 -19 -24 0 -228 148 -280 204 -320 342 -305 754 37 1054 155 136
260 195 486 271 191 64 300 82 580 99 11 1 77 -3 147 -8z m276 -695 c130 -31
232 -66 232 -80 0 -6 -23 -39 -51 -74 -28 -35 -48 -69 -45 -76 3 -8 24 -24 46
-35 49 -25 181 -149 211 -197 11 -18 29 -33 39 -33 10 0 45 25 78 55 55 51 60
53 74 37 23 -26 24 -30 67 -172 45 -149 45 -149 -21 -203 -281 -226 -648 -347
-1051 -347 -226 0 -465 47 -633 125 -61 28 -75 39 -88 70 -45 107 -59 309 -28
399 9 27 22 51 28 53 6 2 32 -14 59 -36 26 -21 63 -47 82 -58 l34 -18 20 25
c10 14 47 69 80 123 34 54 79 112 100 129 22 17 39 39 39 49 0 11 -26 33 -72
61 -40 24 -74 51 -76 60 -2 12 12 25 48 43 46 23 281 115 295 115 3 0 5 -42 5
-94 l0 -93 188 4 c103 3 193 6 200 9 11 3 12 23 6 94 -8 106 -19 101 134 65z"/>
<path d="M14080 21630 c-299 -25 -589 -132 -750 -276 -45 -41 -119 -143 -148
-204 -57 -122 -73 -231 -52 -346 22 -119 36 -119 31 -1 -4 93 38 238 96 330
14 23 59 75 99 115 59 59 89 81 166 116 361 168 979 202 1368 75 117 -39 249
-107 346 -178 53 -39 100 -71 106 -71 14 0 -20 53 -71 111 -54 62 -158 132
-276 186 -268 122 -581 171 -915 143z"/>
<path d="M15279 16150 c-84 -54 -306 -172 -674 -360 -132 -67 -298 -153 -370
-190 -133 -69 -439 -202 -600 -261 -49 -18 -96 -38 -104 -43 -12 -9 -13 -57
-7 -293 3 -155 9 -295 12 -312 6 -28 10 -31 43 -31 47 0 179 32 261 64 102 39
161 66 468 219 292 147 410 209 747 395 105 57 218 119 251 138 34 19 64 39
66 46 3 7 4 42 4 78 -1 36 -3 185 -4 333 -1 147 -5 267 -9 266 -5 0 -42 -23
-84 -49z"/>
<path d="M23323 19998 c-4 -7 -22 -45 -39 -85 -59 -134 -196 -296 -336 -396
-87 -62 -236 -132 -333 -157 -230 -59 -472 -22 -544 82 -14 20 -31 39 -36 41
-7 3 -9 -152 -7 -462 2 -256 5 -467 7 -469 2 -2 45 21 96 51 52 29 213 112
359 184 146 72 324 163 395 202 72 40 203 108 293 152 l162 80 0 395 c0 217
-2 394 -4 394 -3 0 -8 -6 -13 -12z"/>
<path d="M19506 18465 c-49 -169 -68 -217 -172 -425 -144 -289 -228 -415 -358
-546 -206 -205 -345 -273 -538 -262 -132 7 -211 64 -260 187 -20 50 -22 73
-22 206 1 136 8 197 29 248 12 28 -14 21 -150 -43 l-127 -60 7 -643 c3 -353 8
-643 10 -646 2 -2 46 21 97 52 51 30 163 92 248 137 85 45 164 88 176 95 48
31 340 187 464 250 74 38 204 106 288 152 84 46 190 101 236 123 47 21 89 47
95 59 12 22 14 1027 2 1121 l-7 55 -18 -60z"/>
<path d="M16670 16899 c-151 -77 -398 -201 -549 -274 -151 -74 -277 -139 -280
-144 -7 -10 6 -551 13 -558 5 -6 75 30 216 111 63 37 241 129 395 206 154 77
329 166 390 198 l109 59 -3 204 c-2 112 -6 234 -10 271 l-6 67 -275 -140z"/>
</g>
</svg>
