<svg id="svg" version="1.1" viewBox="0 0 300 180.58823529411765" width="300" height="180.58823529411765" xmlns="http://www.w3.org/2000/svg"><svg xmlns="http://www.w3.org/2000/svg"><defs><clipPath id="clip-1"><rect x="0" y="0" transform="scale(0.14648,0.14646)" width="2048" height="1233" fill="none"/></clipPath></defs><g clip-path="url(#clip-1)" fill="none" fill-rule="nonzero" stroke="none" stroke-width="1" stroke-linecap="butt" stroke-linejoin="miter" stroke-miterlimit="10" stroke-dasharray="" stroke-dashoffset="0" font-family="none" font-weight="none" font-size="none" text-anchor="none" style="mix-blend-mode: normal"><path d="M0,0h300v180.58824h-300z" fill="#000000"/><path d="M80.34521,135.8479c-0.04937,-3.34535 0.06519,-7.06725 0.06064,-10.48291l-0.01641,-31.73285l-0.01978,-14.80604c-0.04028,-6.7443 -0.33882,-13.08071 1.11284,-19.82282c3.57612,-16.50046 12.90718,-30.83797 26.74805,-40.57113c15.40781,-10.83499 35.53184,-13.60907 53.83682,-10.43867c17.14746,2.97007 33.0249,13.75195 42.61377,28.30168c4.43408,6.67766 7.54102,14.14725 9.14795,22.00028c0.76172,3.91275 1.35938,7.8873 1.36377,11.88191c0.00586,4.67743 0.00146,9.355 0.00146,14.03257l-0.00586,30.6896l-0.01611,12.93703c0.00879,1.53302 0.12305,6.74313 -0.11426,7.9018c2.45801,0.55187 7.73145,1.54284 9.20654,3.66449c0.46143,0.66333 0.30615,1.2357 0.1582,1.95967c-0.00293,2.10042 0.08936,8.19912 -0.13477,10.08409l0.02197,0.50822c2.10205,0.12449 4.76807,0.05273 6.90234,0.04687l11.3291,-0.01611l35.78467,0.00293l11.3042,-0.01025c1.76953,-0.00586 5.14453,-0.10252 6.81445,0.13328l-0.0498,0.06884c-1.53223,0.27828 -5.57959,0.1699 -7.3374,0.1699l-13.5542,-0.00586l-51.10254,0.00439c-0.07178,2.47082 -0.01172,4.96947 -0.0293,7.44322c-0.01025,1.41629 0.09229,2.92925 -0.1377,4.31625c-8.76855,12.29699 -144.58052,11.26443 -152.89321,-0.05419c0.06343,-3.9003 0.01787,-7.81084 0.10225,-11.70528l-49.3957,-0.00439h-11.39593c-1.75037,0 -5.09208,0.1699 -6.58528,-0.19333l0.08136,-0.0952c6.07402,-0.29439 14.37207,-0.06737 20.57788,-0.07323l46.68442,-0.02929c0.01245,-3.14308 -0.20786,-7.93519 0.03545,-10.90311c-0.66152,-3.08523 6.84814,-4.71433 8.9001,-5.20235z" fill="#000000"/><path d="M215.05811,135.73835c2.45801,0.55187 7.73145,1.54284 9.20654,3.66449c0.46143,0.66333 0.30615,1.2357 0.1582,1.95967c-0.00293,2.10042 0.08936,8.19912 -0.13477,10.08409l0.02197,0.50822c2.10205,0.12449 4.76807,0.05273 6.90234,0.04687l11.3291,-0.01611l35.78467,0.00293l11.3042,-0.01025c1.76953,-0.00586 5.14453,-0.10252 6.81445,0.13328l-0.0498,0.06884c-1.53223,0.27828 -5.57959,0.1699 -7.3374,0.1699l-13.5542,-0.00586l-51.10254,0.00439c-0.07178,2.47082 -0.01172,4.96947 -0.0293,7.44322c-0.01025,1.41629 0.09229,2.92925 -0.1377,4.31625c-8.76855,12.29699 -144.58052,11.26443 -152.89321,-0.05419c0.06343,-3.9003 0.01787,-7.81084 0.10225,-11.70528l-49.3957,-0.00439h-11.39593c-1.75037,0 -5.09208,0.1699 -6.58528,-0.19333l0.08136,-0.0952c6.07402,-0.29439 14.37207,-0.06737 20.57788,-0.07323l46.68442,-0.02929c0.01245,-3.14308 -0.20786,-7.93519 0.03545,-10.90311c-0.66152,-3.08523 6.84814,-4.71433 8.9001,-5.20235l0.19702,1.15632c1.4001,3.50294 22.35381,4.60185 26.4895,4.86636c19.39922,1.2565 38.84443,1.65986 58.27881,1.20905c9.89355,-0.73568 42.42334,-0.72968 49.68164,-5.37825c0.01318,-0.43734 -0.09375,-1.35771 -0.13623,-1.83268z" fill="#000000"/><path d="M215.05811,135.73835c2.45801,0.55187 7.73145,1.54284 9.20654,3.66449c0.46143,0.66333 0.30615,1.2357 0.1582,1.95967l-0.35449,0.34448c-6.3999,5.13776 -36.96533,6.94364 -45.92139,7.41671c-14.98096,0.68105 -29.98096,0.82165 -44.9707,0.42035c-16.32876,-0.35297 -34.65791,-1.02524 -50.58794,-4.27626c-3.19395,-0.65176 -8.48965,-1.60289 -10.94458,-3.81081l-0.19863,-0.40673c-0.66152,-3.08523 6.84814,-4.71433 8.9001,-5.20235l0.19702,1.15632c1.4001,3.50294 22.35381,4.60185 26.4895,4.86636c19.39922,1.2565 38.84443,1.65986 58.27881,1.20905c9.89355,-0.73568 42.42334,-0.72968 49.68164,-5.37825c0.01318,-0.43734 -0.09375,-1.35771 -0.13623,-1.83268z" fill="#e6e6e6"/><path d="M71.44512,141.05025l0.19863,0.40673c0.05259,0.79075 0.01626,1.57242 0.01641,2.3642c0.00176,6.64998 0.24053,13.44291 -0.01816,20.08059c3.46553,4.68533 28.34854,6.50879 35.18467,7.0756c11.65562,0.99448 23.34565,1.53493 35.04346,1.62134c19.4707,0.21237 38.90186,-0.09667 58.26123,-2.38587c6.87891,-0.81726 13.81641,-1.64038 20.3877,-3.95009c4.02832,-1.41629 3.48486,-2.59678 3.53174,-6.31986c0.0293,-2.46203 -0.16553,-5.48209 0.0249,-7.91776l0.23438,-0.0703c2.10205,0.12449 4.76807,0.05273 6.90234,0.04687l11.3291,-0.01611l35.78467,0.00293l11.3042,-0.01025c1.76953,-0.00586 5.14453,-0.10252 6.81445,0.13328l-0.0498,0.06884c-1.53223,0.27828 -5.57959,0.1699 -7.3374,0.1699l-13.5542,-0.00586l-51.10254,0.00439c-0.07178,2.47082 -0.01172,4.96947 -0.0293,7.44322c-0.01025,1.41629 0.09229,2.92925 -0.1377,4.31625c-8.76855,12.29699 -144.58052,11.26443 -152.89321,-0.05419c0.06343,-3.9003 0.01787,-7.81084 0.10225,-11.70528l-49.3957,-0.00439h-11.39593c-1.75037,0 -5.09208,0.1699 -6.58528,-0.19333l0.08136,-0.0952c6.07402,-0.29439 14.37207,-0.06737 20.57788,-0.07323l46.68442,-0.02929c0.01245,-3.14308 -0.20786,-7.93519 0.03545,-10.90311z" fill="#636466"/><path d="M224.42285,141.36251c-0.00293,2.10042 0.08936,8.19912 -0.13477,10.08409l0.02197,0.50822l-0.23437,0.0703c-0.28711,-1.3123 0.20654,-9.98244 -0.00732,-10.31814z" fill="#4b4c4d"/><path d="M224.07568,152.02512c0.11426,-0.55656 0.12158,-1.9582 0.08936,-2.52501c0.04688,0.64883 0.08789,1.29766 0.12305,1.94649l0.02197,0.50822z" fill="#636466"/><path d="M142.97139,159.00406c1.61309,-0.43939 3.277,0.51262 3.71221,2.12664c0.43652,1.61402 -0.52134,3.2749 -2.13662,3.70697c-1.60928,0.4306 -3.26294,-0.52287 -3.69727,-2.13103c-0.43418,-1.60816 0.51475,-3.26465 2.12168,-3.70257z" fill="#e6e6e6"/><path d="M143.01724,160.19041c0.93428,-0.39252 2.00991,0.03954 2.41304,0.96958c0.40313,0.92857 -0.01611,2.00947 -0.94043,2.42395c-0.6082,0.27242 -1.31602,0.19772 -1.85303,-0.19772c-0.53701,-0.39398 -0.82031,-1.04721 -0.7415,-1.70922c0.07866,-0.66055 0.50728,-1.22882 1.12192,-1.48659z" fill="#000000"/><path d="M161.71436,162.44446c-0.29297,1.49392 -1.6626,2.52941 -3.18018,2.40491c-1.51758,-0.12303 -2.69971,-1.36649 -2.74805,-2.88824c-0.04834,-1.52175 1.05322,-2.83698 2.55908,-3.05667c1.50732,-0.21969 2.93848,0.72645 3.32666,2.1984c0.11572,0.43792 0.13037,0.89635 0.04248,1.3416z" fill="#e6e6e6"/><path d="M158.40381,160.01172c1.00635,-0.20944 1.99072,0.43792 2.19727,1.44558c0.20801,1.0062 -0.44092,1.98896 -1.44727,2.19547c-1.00488,0.20651 -1.98779,-0.44085 -2.1958,-1.44558c-0.20654,-1.00473 0.43945,-1.98896 1.4458,-2.19547z" fill="#000000"/><path d="M165.71631,162.58946c-0.08643,-0.84216 -0.44092,-3.10793 -0.05566,-3.67914c0.47021,-0.12889 0.27393,-0.13767 0.73975,0.04687c0.57861,0.69277 0.45996,4.8523 -0.02051,5.59487c-0.79687,0.26217 -2.69385,-2.83112 -3.21826,-3.57076c0.06738,0.7909 0.41748,3.21925 -0.03369,3.7802l-0.75732,0.02197c-0.23437,-0.22995 -0.18164,-0.09667 -0.25049,-0.37348c-0.29883,-0.66055 0.01172,-1.2215 -0.40576,-1.96553c0.08789,-0.44525 0.07324,-0.90367 -0.04248,-1.3416c0.26514,-0.21823 0.28711,-0.63565 0.39111,-1.03842c-0.04541,-0.68105 -0.15674,-0.65908 0.14795,-1.12776c1.13379,-0.19919 2.8623,2.74178 3.50537,3.65277z" fill="#e6e6e6"/><path d="M162.06299,160.06445c0.1377,1.18781 0.14648,3.13869 0.05713,4.34554c-0.29883,-0.66055 0.01172,-1.2215 -0.40576,-1.96553c0.08789,-0.44525 0.07324,-0.90367 -0.04248,-1.3416c0.26514,-0.21823 0.28711,-0.63565 0.39111,-1.03842z" fill="#181818"/><path d="M128.94785,158.37134c1.70288,0.4555 2.35532,2.32729 3.48472,3.96474c-0.05889,-0.79676 -0.427,-3.21339 0.33047,-3.56929c0.50698,0.03076 0.54829,-0.06005 0.82852,0.2358c0.1333,1.26397 -0.10137,4.19615 -0.15952,5.5934c-0.74429,-0.03662 -0.93911,-0.12889 -1.40786,-0.72352c-0.71821,-0.911 -1.34985,-1.95967 -1.97095,-2.93804c0.0252,1.04135 -0.03486,2.26285 -0.0646,3.3203l-0.24639,0.22409c-0.60454,0.02929 -0.39331,0.09227 -0.86294,-0.17136c-0.14429,-1.21417 0.09668,-4.38948 0.06855,-5.93612z" fill="#e6e6e6"/><path d="M171.26074,158.64083c0.36914,-0.00146 0.55225,0.01758 0.91992,0.06298c0.26221,0.77625 0.54932,4.34261 0.21973,5.17745c-0.33545,0.32368 -0.1626,0.25484 -0.64893,0.25045c-1.06348,-0.45843 -2.07129,-2.07537 -2.76709,-3.03031c0.05713,0.8817 0.38965,2.96147 -0.17871,3.5649c-0.25781,-0.06151 -0.53027,-0.15818 -0.78369,-0.23873c-0.22119,-0.49504 -0.27832,-4.75857 -0.25781,-5.53042c0.26074,-0.14939 0.82617,-0.00586 1.19531,0.03808c0.61816,0.99009 1.63037,2.30971 2.33496,3.28369c-0.0498,-0.93882 -0.40869,-2.88385 -0.03369,-3.57808z" fill="#e6e6e6"/><path d="M124.60737,158.46508c0.60908,0.03076 0.78267,0.03076 1.37681,0.20212c0.48179,0.52287 1.92275,5.09543 1.66772,5.75598l-0.55957,0.02343c-0.91143,-0.59171 -0.29824,-1.12483 -1.44375,-1.31963c-0.49395,-0.0703 -0.87524,-0.08788 -1.36772,-0.10985c-0.58374,0.32368 -0.25957,0.59757 -0.84434,1.24932c-0.44912,0.08788 -0.52676,0.11571 -0.95244,-0.03808l-0.11147,-0.24606c0.83965,-1.87618 1.41182,-3.69525 2.23477,-5.51724z" fill="#e6e6e6"/><path d="M125.27563,159.88283c0.22104,0.61954 0.64702,1.59791 0.58066,2.2233l-0.38584,0.23873c-0.38804,-0.09959 -0.47988,-0.0952 -0.77725,-0.34272c-0.12129,-0.63125 0.32739,-1.44412 0.58242,-2.11931z" fill="#000000"/><path d="M113.43706,157.90559c1.0084,-0.04687 2.35679,0.10838 2.92251,1.04721c-0.16392,0.53019 -0.07163,0.33833 -0.55737,0.77772c-0.56089,0.0205 -1.54995,-1.6521 -2.38652,-0.3105c0.51694,0.82898 2.55513,1.21124 3.03867,2.42688c0.3832,0.96226 -0.59839,1.80295 -1.40098,2.11492c-1.03916,-0.02197 -2.32368,-0.22116 -3.03325,-1.06478c-0.14736,-0.53166 -0.14634,-0.30464 0.03237,-0.86559c0.92842,-0.64151 1.4688,0.9066 2.75654,0.65176c0.30981,-0.4306 0.23804,-0.23141 0.27832,-0.75282c-0.7979,-0.90367 -2.92148,-1.17902 -2.98901,-2.57774c0.1853,-0.70448 0.75146,-1.08089 1.33872,-1.44705z" fill="#e6e6e6"/><path d="M152.08594,158.9484c0.07471,-0.00879 0.15088,-0.01465 0.22705,-0.01904c1.06494,-0.06444 1.64941,0.12303 2.43164,0.81433c0.21387,0.52726 0.19629,0.30611 0.08789,0.83923c-0.36475,0.29439 -0.17725,0.23434 -0.70166,0.18454c-0.58447,-0.56681 -1.07959,-0.93297 -1.93066,-0.65322c-2.5459,0.84069 -1.42236,4.56084 1.50439,3.40086c0.45264,-0.30611 0.65479,-0.48772 1.13379,-0.15964l0.02783,0.34126c-0.97119,2.20572 -4.39307,1.39286 -5.12109,-0.72645c-0.2666,-0.78504 -0.20654,-1.64331 0.16699,-2.38294c0.49951,-1.00766 1.17041,-1.30205 2.17383,-1.63892z" fill="#e6e6e6"/><path d="M180.78369,158.0872c0.9668,0.06737 2.59131,0.62247 2.18555,1.88497c-0.73828,0.20212 -2.41699,-1.20392 -3.28564,-0.32954c-1.79297,1.80735 0.28564,4.76003 2.62207,2.56016c0.3252,-0.12889 0.49219,0 0.74561,0.15086c0.16553,0.7865 -0.91113,1.55543 -1.59814,1.64038c-4.24365,0.53312 -5.32178,-5.17745 -0.66943,-5.90683z" fill="#e6e6e6"/><path d="M175.47949,158.53831c0.60498,-0.0205 1.27295,-0.11571 1.7417,0.22555c0.17285,0.47014 0.16113,0.27096 0.05566,0.75282c-0.47754,0.21969 -1.29346,0.02929 -2.05518,0.18161c-0.32373,0.37934 -0.27832,0.22702 -0.36768,0.67519c0.66797,0.57999 1.77393,0.16257 2.53271,0.66348c0.10254,0.39252 0.1084,0.22702 -0.07764,0.63272c-0.67236,0.40424 -1.65381,-0.10399 -2.10791,0.40277c-0.04102,0.46722 -0.12744,0.59903 0.0498,0.98716l0.27393,0.02197c0.61084,-0.02929 1.47656,-0.16697 1.96143,0.11571c0.1582,0.39691 0.22998,0.47454 0.13184,0.86413c-0.54492,0.18161 -2.79199,0.1655 -3.55664,0.19333c-0.10547,-1.87326 -0.22559,-3.74505 -0.36182,-5.61537z" fill="#e6e6e6"/><path d="M119.296,158.19852c1.39248,0.0747 1.94927,0.18161 2.79229,1.34745c0.04482,0.43646 0.07104,0.2607 -0.13286,0.65762c-1.01265,0.14646 -2.75039,-1.59058 -3.41836,-0.66201c-1.60576,2.23355 -0.05083,3.27783 1.96143,3.36864c0.44648,-0.36616 0.62915,-0.53752 1.17671,-0.35151c0.02944,0.145 0.10137,0.29878 0.03076,0.41009c-1.7272,2.69784 -6.37002,-0.19919 -4.69116,-3.09622c0.62739,-1.08382 1.12471,-1.30645 2.2812,-1.67407z" fill="#e6e6e6"/><path d="M185.96631,157.97443c0.86719,-0.09374 1.74756,-0.3603 2.22949,0.53166l-0.18018,0.28121c-0.42187,0.30318 -0.90674,0.21823 -1.43115,0.1948c0.18164,1.61109 0.38379,3.2046 0.55225,4.81862c-0.33691,0.30171 -0.54785,0.23727 -1.06934,0.31197c-0.70752,-0.36762 -0.67236,-4.06433 -0.71777,-5.00609c-0.54639,0.08202 -1.08252,0.23434 -1.53516,-0.02636c-0.1875,-0.3559 -0.19336,-0.40277 -0.14502,-0.80408c0.39258,-0.31343 1.72705,-0.27535 2.29688,-0.30171z" fill="#e6e6e6"/><path d="M136.20015,158.94108c0.79395,0 3.70342,-0.0454 4.31558,0.0747c0.20918,0.43646 0.18281,0.2402 0.06958,0.74696c-0.54214,0.38227 -0.65244,-0.02343 -1.38867,0.28121c-0.22456,0.43792 -0.14985,2.52062 -0.15044,3.15187c0.00015,0.5258 0.08511,1.08529 -0.21592,1.4617c-0.47476,0.06005 -0.28579,0.09227 -0.71382,-0.12303c-0.54229,-0.87145 -0.24316,-3.37596 -0.21533,-4.58428c-0.50156,0.01318 -0.87979,0.03515 -1.38267,-0.03662c-0.36987,-0.37201 -0.26191,-0.3559 -0.31831,-0.97251z" fill="#e6e6e6"/><path d="M80.34521,135.8479c-0.04937,-3.34535 0.06519,-7.06725 0.06064,-10.48291l-0.01641,-31.73285l-0.01978,-14.80604c-0.04028,-6.7443 -0.33882,-13.08071 1.11284,-19.82282c3.57612,-16.50046 12.90718,-30.83797 26.74805,-40.57113c15.40781,-10.83499 35.53184,-13.60907 53.83682,-10.43867c17.14746,2.97007 33.0249,13.75195 42.61377,28.30168c4.43408,6.67766 7.54102,14.14725 9.14795,22.00028c0.76172,3.91275 1.35938,7.8873 1.36377,11.88191c0.00586,4.67743 0.00146,9.355 0.00146,14.03257l-0.00586,30.6896l-0.01611,12.93703c0.00879,1.53302 0.12305,6.74313 -0.11426,7.9018l-0.20215,0.13035c0.19482,-3.47014 0.03223,-8.1458 0.03223,-11.72769l-0.00146,-23.115l0.01172,-19.47131c0.01025,-5.73181 0.17139,-11.23689 -0.43213,-16.94703c-1.50732,-13.25647 -7.07666,-25.72277 -15.94629,-35.69071c-11.42285,-12.7642 -27.42773,-20.49819 -44.52832,-21.51765c-17.56772,-1.0007 -33.84111,2.21519 -47.87637,13.25819c-1.43174,1.12659 -3.15894,2.32495 -4.49326,3.53839c-11.93569,10.85433 -20.02808,27.55677 -20.85806,43.69532c-0.32417,6.30418 -0.12187,13.94425 -0.10063,20.30234l0.01978,30.54431l0.00967,10.96228c-0.00308,2.2441 0.03325,5.078 -0.15059,7.30408z" fill="#636466"/><path d="M159.90381,131.27227c0.50244,-0.01406 0.96826,-0.01933 1.46924,-0.08656c0.28857,-0.31006 0.32373,-0.48259 0.32666,-0.96416c0.01465,-2.53322 0.01025,-5.08108 0.00879,-7.61371l-0.03369,-14.88835v-43.54007l-0.04395,-10.15922c-0.01611,-4.0283 -0.37207,-8.89657 1.1499,-12.70035c1.85156,-4.62953 6.54639,-7.64842 11.50635,-7.64417c2.20752,0.0019 3.08789,0.13577 5.13721,1.04003c1.81641,0.71225 3.104,1.03417 4.61279,2.40213c2.48438,2.25406 2.82129,4.7593 3.71777,7.69016c0.93018,3.0391 0.53027,4.77936 0.50537,7.88173v12.61408l0.00146,67.38739c-8.91797,-0.82649 -18.10547,-1.22618 -27.07471,-1.27056c-0.55811,-0.00278 -0.74268,0.0495 -1.2832,-0.14837z" fill="#181818"/><path d="M97.75708,66.08167c4.0708,-0.34433 5.42739,1.36298 5.46035,5.21172c0.08599,10.03663 -0.19204,20.06272 -0.07998,30.10287c0.0728,6.51904 0.45073,13.03736 0.44604,19.55347c-0.03091,3.17384 0.15264,6.37214 -3.1084,7.87075c-1.19121,0.27769 -1.85215,0.31533 -3.02344,-0.08993c-2.57227,-0.8902 -2.8144,-3.14133 -2.85454,-5.48033c-0.15527,-9.06383 0.01978,-18.12942 0.04995,-27.1931l-0.00381,-15.0455c-0.01714,-3.67137 -0.28198,-9.04699 0.37705,-12.75849c0.17402,-0.97983 1.85479,-1.7927 2.73677,-2.17145z" fill="#181818"/><path d="M161.54297,131.59507c-4.8457,0.07821 -10.04736,-0.05082 -14.97217,-0.0082c-13.5895,0.0643 -27.17314,0.5674 -40.72998,1.50827c-6.01289,0.46897 -11.925,1.0746 -17.89556,1.95176c-1.15225,0.16931 -6.60703,1.25474 -7.20205,1.10491l0.09536,-0.13138c1.18755,-0.39618 3.18413,-0.6727 4.48887,-0.89445c2.57183,-0.45667 5.15317,-0.85754 7.74229,-1.20246c7.61455,-0.99155 15.35215,-1.4491 23.01753,-1.82712c9.62944,-0.49621 19.26899,-0.7761 28.91104,-0.83967c4.77612,-0.0454 10.27515,0.14983 14.90552,0.01553c0.54053,0.19787 0.7251,0.14558 1.2832,0.14837c8.96924,0.04438 18.15674,0.44407 27.07471,1.27056c3.60498,0.15188 24.30176,1.97768 26.38037,3.90645c-0.55225,-0.06151 -1.1748,-0.23214 -1.72705,-0.35678c-13.11328,-2.96543 -26.67627,-3.22715 -40.04004,-4.11867c-3.74414,-0.24972 -7.60693,-0.1513 -11.33203,-0.52712z" fill="#4b4c4d"/></g></svg></svg>